<svg width="512" height="512" viewBox="0 0 512 512" fill="none" xmlns="http://www.w3.org/2000/svg">
  <rect width="512" height="512" fill="transparent"/>
  <g fill="#1185E5">
    <path d="M256 72L338 154L256 236L174 154L256 72Z"/>
    <path d="M170 166L250 246L228 268L148 188L170 166Z"/>
    <path d="M342 166L364 188L284 268L262 246L342 166Z"/>
    <rect x="136" y="204" width="14" height="14" transform="rotate(45 136 204)"/>
    <rect x="158" y="224" width="12" height="12" transform="rotate(45 158 224)"/>
    <rect x="182" y="244" width="11" height="11" transform="rotate(45 182 244)"/>
    <rect x="206" y="264" width="10" height="10" transform="rotate(45 206 264)"/>
    <rect x="232" y="282" width="10" height="10" transform="rotate(45 232 282)"/>
    <rect x="112" y="228" width="12" height="12" transform="rotate(45 112 228)"/>
    <rect x="88" y="252" width="10" height="10" transform="rotate(45 88 252)"/>
    <rect x="70" y="274" width="8" height="8" transform="rotate(45 70 274)"/>
    <rect x="362" y="204" width="14" height="14" transform="rotate(45 362 204)"/>
    <rect x="342" y="224" width="12" height="12" transform="rotate(45 342 224)"/>
    <rect x="318" y="244" width="11" height="11" transform="rotate(45 318 244)"/>
    <rect x="294" y="264" width="10" height="10" transform="rotate(45 294 264)"/>
    <rect x="270" y="282" width="10" height="10" transform="rotate(45 270 282)"/>
    <rect x="388" y="228" width="12" height="12" transform="rotate(45 388 228)"/>
    <rect x="414" y="252" width="10" height="10" transform="rotate(45 414 252)"/>
    <rect x="432" y="274" width="8" height="8" transform="rotate(45 432 274)"/>
  </g>
  <text x="256" y="426" fill="#1185E5" font-size="34" font-family="Rubik, Arial, sans-serif" text-anchor="middle" letter-spacing="8">DIGITAL MARKETING</text>
</svg>
